<?xml version="1.0" standalone="no"?><!DOCTYPE svg PUBLIC "-//W3C//DTD SVG 1.1//EN" "http://www.w3.org/Graphics/SVG/1.1/DTD/svg11.dtd"><svg t="1709975449583" class="icon" viewBox="0 0 1036 1024" version="1.1" xmlns="http://www.w3.org/2000/svg" p-id="10820" xmlns:xlink="http://www.w3.org/1999/xlink" width="303.515625" height="300"><path d="M499.2 128L12.8 275.2c-12.8 6.4-12.8 25.6 0 25.6l467.2 166.4c12.8 6.4 25.6 6.4 44.8 0l448-147.2c6.4 0 12.8 0 12.8 6.4V640c0 6.4 12.8 12.8 19.2 12.8h12.8c6.4 0 19.2-6.4 19.2-12.8V339.2c0-32-19.2-57.6-44.8-64L499.2 128z" fill="#055381" p-id="10821"></path><path d="M313.6 896c-121.6 0-224-102.4-224-224S192 454.4 313.6 454.4s224 102.4 224 224S435.2 896 313.6 896z m0-384c-89.6 0-160 70.4-160 160S224 832 313.6 832s160-70.4 160-160S403.2 512 313.6 512z" fill="#20AFC5" p-id="10822"></path><path d="M697.6 896c-121.6 0-224-102.4-224-224S576 454.4 697.6 454.4s224 102.4 224 224-96 217.6-224 217.6z m0-384c-89.6 0-160 70.4-160 160S608 832 697.6 832s160-70.4 160-160S787.2 512 697.6 512z" fill="#20AFC5" p-id="10823"></path><path d="M236.8 672a76.8 76.8 0 1 0 153.6 0 76.8 76.8 0 1 0-153.6 0Z" fill="#055381" p-id="10824"></path><path d="M620.8 672a76.8 76.8 0 1 0 153.6 0 76.8 76.8 0 1 0-153.6 0Z" fill="#055381" p-id="10825"></path><path d="M697.6 512v-57.6c-83.2 0-153.6 44.8-192 108.8-38.4-64-108.8-108.8-192-108.8V512c89.6 0 160 70.4 160 160S403.2 832 313.6 832v64c83.2 0 153.6-44.8 192-108.8-19.2-32-32-70.4-32-108.8h57.6c0 38.4-12.8 76.8-32 108.8 38.4 64 108.8 108.8 192 108.8v-57.6c-89.6 0-160-70.4-160-160S608 512 697.6 512zM505.6 780.8z" fill="#055381" p-id="10826"></path></svg>